# xmcd
#
# Track frame offsets: 
#        150
#        22578
#        45705
#        64064
#        83941
#        103501
#        124524
#        149232
#        173466
#        194257
#        216065
#        237861
#
# Disc length: 3432 seconds
#
# Revision: 0
# Processed by: cddbd v1.5.2PL0 Copyright (c) Steve Scherf et al.
# Submitted via: ExactAudioCopy v1.0b3
#
DISCID=9c0d660c
DTITLE=龚玥 - DTS ES 正品 传奇之声2
DYEAR=2011
DGENRE=DTS ES
TTITLE0=爱上草原爱上你 
TTITLE1=金瓶似的小山
TTITLE2=溜溜的姑娘像朵花
TTITLE3=望北方
TTITLE4=长大后我就成了你
TTITLE5=草原恋歌
TTITLE6=小城故事
TTITLE7=蝴蝶的翅膀
TTITLE8=梨花满天开
TTITLE9=姑娘爱情郎
TTITLE10=回家真好
TTITLE11=心中自有你
EXTD=
EXTT0=
EXTT1=
EXTT2=
EXTT3=
EXTT4=
EXTT5=
EXTT6=
EXTT7=
EXTT8=
EXTT9=
EXTT10=
EXTT11=
PLAYORDER=
